<svg width="19" height="21" viewBox="0 0 19 21" fill="none" xmlns="http://www.w3.org/2000/svg">
<path d="M9.64267 13.5C6.4726 13.5 3.65347 15.0306 1.85867 17.406C1.47238 17.9172 1.27923 18.1728 1.28555 18.5183C1.29043 18.7852 1.45803 19.1219 1.66804 19.2867C1.93986 19.5 2.31654 19.5 3.06991 19.5H16.2154C16.9688 19.5 17.3455 19.5 17.6173 19.2867C17.8273 19.1219 17.9949 18.7852 17.9998 18.5183C18.0061 18.1728 17.813 17.9172 17.4267 17.406C15.6319 15.0306 12.8127 13.5 9.64267 13.5Z" stroke="#2B2D34" stroke-width="2" stroke-linecap="round" stroke-linejoin="round"/>
<path d="M9.64267 10.5C12.128 10.5 14.1427 8.48528 14.1427 6C14.1427 3.51472 12.128 1.5 9.64267 1.5C7.15739 1.5 5.14267 3.51472 5.14267 6C5.14267 8.48528 7.15739 10.5 9.64267 10.5Z" stroke="#2B2D34" stroke-width="2" stroke-linecap="round" stroke-linejoin="round"/>
</svg>
