<svg width="25" height="25" viewBox="0 0 25 25" fill="none" xmlns="http://www.w3.org/2000/svg">
<path d="M1.2854 1.5H2.73023C3.00237 1.5 3.13844 1.5 3.24794 1.54976C3.34443 1.59362 3.42621 1.66415 3.48351 1.75294C3.54854 1.8537 3.56778 1.98765 3.60627 2.25555L4.12982 5.9M4.12982 5.9L5.29339 14.4045C5.44104 15.4838 5.51487 16.0234 5.77432 16.4296C6.00295 16.7875 6.33071 17.0721 6.71816 17.2491C7.15787 17.45 7.70551 17.45 8.8008 17.45H18.2672C19.3098 17.45 19.8311 17.45 20.2572 17.2635C20.6328 17.099 20.955 16.8338 21.1878 16.4976C21.4518 16.1164 21.5493 15.6071 21.7444 14.5886L23.2086 6.94466C23.2772 6.58619 23.3116 6.40695 23.2618 6.26685C23.2182 6.14395 23.1321 6.04045 23.0188 5.97482C22.8897 5.9 22.7062 5.9 22.3393 5.9H4.12982ZM10.1347 22.4C10.1347 23.0075 9.63947 23.5 9.02855 23.5C8.41763 23.5 7.92238 23.0075 7.92238 22.4C7.92238 21.7925 8.41763 21.3 9.02855 21.3C9.63947 21.3 10.1347 21.7925 10.1347 22.4ZM18.984 22.4C18.984 23.0075 18.4888 23.5 17.8779 23.5C17.2669 23.5 16.7717 23.0075 16.7717 22.4C16.7717 21.7925 17.2669 21.3 17.8779 21.3C18.4888 21.3 18.984 21.7925 18.984 22.4Z" stroke="#2B2D34" stroke-width="2" stroke-linecap="round" stroke-linejoin="round"/>
</svg>
