<svg width="22" height="20" viewBox="0 0 22 20" fill="none" xmlns="http://www.w3.org/2000/svg">
<path d="M8.78503 10L10.785 12L15.285 7.5M11.785 18.5C16.4794 18.5 20.285 14.6944 20.285 10C20.285 5.30558 16.4794 1.5 11.785 1.5C7.09061 1.5 3.28503 5.30558 3.28503 10C3.28503 10.95 3.44087 11.8636 3.7284 12.7166C3.8366 13.0376 3.89069 13.1981 3.90045 13.3214C3.91009 13.4432 3.90281 13.5286 3.87268 13.6469C3.84217 13.7668 3.77482 13.8915 3.64012 14.1408L2.00446 17.1684C1.77115 17.6002 1.65449 17.8161 1.6806 17.9828C1.70334 18.1279 1.78877 18.2557 1.9142 18.3322C2.0582 18.4201 2.30232 18.3948 2.79057 18.3444L7.91159 17.815C8.06667 17.799 8.14421 17.791 8.21489 17.7937C8.2844 17.7963 8.33347 17.8029 8.40126 17.8185C8.47018 17.8344 8.55685 17.8678 8.73018 17.9345C9.67823 18.2998 10.7082 18.5 11.785 18.5Z" stroke="#2B2D34" stroke-width="2" stroke-linecap="round" stroke-linejoin="round"/>
</svg>
