<svg width="20" height="21" viewBox="0 0 20 21" fill="none" xmlns="http://www.w3.org/2000/svg">
<path d="M18.9641 19.5L14.6211 15.157M14.6211 15.157C15.364 14.4141 15.9533 13.5321 16.3554 12.5615C16.7574 11.5909 16.9643 10.5506 16.9643 9.49996C16.9643 8.44936 16.7574 7.40905 16.3554 6.43842C15.9533 5.46779 15.364 4.58585 14.6211 3.84296C13.8782 3.10007 12.9963 2.51078 12.0257 2.10874C11.0551 1.70669 10.0147 1.49976 8.96413 1.49976C7.91353 1.49976 6.87322 1.70669 5.90259 2.10874C4.93196 2.51078 4.05002 3.10007 3.30713 3.84296C1.8068 5.34329 0.963928 7.37818 0.963928 9.49996C0.963928 11.6217 1.8068 13.6566 3.30713 15.157C4.80746 16.6573 6.84235 17.5002 8.96413 17.5002C11.0859 17.5002 13.1208 16.6573 14.6211 15.157Z" stroke="#2B2D34" stroke-width="1.5" stroke-linecap="round" stroke-linejoin="round"/>
</svg>
