<svg width="23" height="19" viewBox="0 0 23 19" fill="none" xmlns="http://www.w3.org/2000/svg">
<path d="M1.2854 4.5L9.45032 10.2154C10.1115 10.6783 10.4421 10.9097 10.8017 10.9993C11.1193 11.0785 11.4515 11.0785 11.7691 10.9993C12.1287 10.9097 12.4593 10.6783 13.1205 10.2154L21.2854 4.5M6.0854 17.5H16.4854C18.1656 17.5 19.0056 17.5 19.6474 17.173C20.2119 16.8854 20.6708 16.4265 20.9584 15.862C21.2854 15.2202 21.2854 14.3802 21.2854 12.7V6.3C21.2854 4.61984 21.2854 3.77976 20.9584 3.13803C20.6708 2.57354 20.2119 2.1146 19.6474 1.82698C19.0056 1.5 18.1656 1.5 16.4854 1.5H6.0854C4.40524 1.5 3.56516 1.5 2.92343 1.82698C2.35894 2.1146 1.9 2.57354 1.61238 3.13803C1.2854 3.77976 1.2854 4.61984 1.2854 6.3V12.7C1.2854 14.3802 1.2854 15.2202 1.61238 15.862C1.9 16.4265 2.35894 16.8854 2.92343 17.173C3.56516 17.5 4.40524 17.5 6.0854 17.5Z" stroke="#2B2D34" stroke-width="2" stroke-linecap="round" stroke-linejoin="round"/>
</svg>
