<svg width="21" height="21" viewBox="0 0 21 21" fill="none" xmlns="http://www.w3.org/2000/svg">
<path d="M6.66568 7.35323C7.36168 8.80285 8.31046 10.1615 9.51204 11.3631C10.7136 12.5646 12.0723 13.5134 13.5219 14.2094C13.6466 14.2693 13.7089 14.2992 13.7878 14.3222C14.0682 14.404 14.4124 14.3453 14.6498 14.1752C14.7167 14.1274 14.7738 14.0702 14.8881 13.9559C15.2377 13.6063 15.4125 13.4315 15.5883 13.3172C16.2512 12.8862 17.1058 12.8862 17.7687 13.3172C17.9445 13.4315 18.1193 13.6063 18.4689 13.9559L18.6637 14.1508C19.1952 14.6822 19.4609 14.948 19.6052 15.2333C19.8923 15.8009 19.8923 16.4712 19.6052 17.0387C19.4609 17.3241 19.1952 17.5898 18.6637 18.1213L18.5061 18.2789C17.9765 18.8085 17.7117 19.0733 17.3516 19.2756C16.9521 19.5 16.3316 19.6614 15.8734 19.66C15.4605 19.6588 15.1782 19.5787 14.6138 19.4185C11.5804 18.5575 8.71804 16.933 6.33006 14.545C3.94208 12.1571 2.31761 9.29471 1.45664 6.26131C1.29643 5.69687 1.21632 5.41464 1.2151 5.0017C1.21373 4.54347 1.37509 3.92298 1.59952 3.52348C1.80176 3.16345 2.06657 2.89863 2.5962 2.36901L2.75383 2.21138C3.28527 1.67993 3.551 1.41421 3.83638 1.26987C4.40394 0.982798 5.0742 0.982798 5.64176 1.26987C5.92714 1.41421 6.19287 1.67993 6.72431 2.21138L6.91918 2.40625C7.26879 2.75585 7.44359 2.93065 7.55787 3.10643C7.98887 3.76932 7.98887 4.6239 7.55787 5.28679C7.44359 5.46257 7.26878 5.63738 6.91918 5.98698C6.80487 6.10129 6.74771 6.15845 6.69987 6.22526C6.52986 6.46269 6.47116 6.80695 6.55288 7.0873C6.57588 7.1662 6.60581 7.22854 6.66568 7.35323Z" stroke="#2B2D34" stroke-width="2" stroke-linecap="round" stroke-linejoin="round"/>
</svg>
