<svg width="60" height="57" viewBox="0 0 60 57" fill="none" xmlns="http://www.w3.org/2000/svg">
<path d="M24.2108 0.110794C21.1477 0.559052 18.0971 2.48905 16.3538 5.10389C14.8223 7.39498 14.1374 10.4456 14.5982 12.8861C15.0091 15.0278 16.0924 17.1446 18.2589 20.0334L19.6535 21.8886H13.9507H8.24784L7.82449 22.175C7.01513 22.7104 6.96533 22.9595 6.96533 26.3961V29.4841H3.72791C0.652367 29.4841 0.478044 29.4966 0.241464 29.7331C-0.0698259 30.0444 -0.0822775 30.5051 0.216561 30.7666C0.415786 30.9534 0.851592 30.9783 3.70301 30.9783H6.96533V33.5931V36.208H5.18475C3.6034 36.208 3.36682 36.2329 3.19249 36.4321C2.89365 36.7559 2.93101 37.2788 3.25475 37.5029C3.47888 37.6648 3.90223 37.7022 5.24701 37.7022H6.96533V40.2548V42.8073H3.80262C0.801786 42.8073 0.627464 42.8198 0.316174 43.0688C-0.0573743 43.3677 -0.107181 43.8035 0.216561 44.0898C0.415786 44.2766 0.851592 44.3015 3.70301 44.3015H6.96533V47.4393C6.96533 50.9009 7.01513 51.1624 7.74978 51.6978C8.07352 51.9468 8.29765 51.9593 10.9498 51.9966L13.7888 52.034L13.8635 52.4573C13.9133 52.6814 14.1374 53.2667 14.3865 53.7523C15.4075 55.7943 17.7733 57.0271 19.9648 56.6535C20.8862 56.5041 21.9321 56.0683 22.617 55.5453C23.3392 54.9974 24.1236 53.8394 24.41 52.8807L24.6715 52.0215H34.9067H45.1544L45.3536 52.7313C46.0758 55.3461 48.7902 57.0769 51.4549 56.6411C53.609 56.28 55.3896 54.6737 55.9126 52.5943L56.0495 52.0215H57.7803C59.3617 52.0215 59.536 51.9966 59.7601 51.7725C60.0091 51.5234 60.0216 51.4114 59.9842 46.0074L59.9469 40.5038L59.536 39.6695C59.2745 39.1466 58.9009 38.636 58.5025 38.2749C57.9173 37.752 56.7966 37.2041 56.2861 37.2041C56.0993 37.2041 55.9375 36.7309 55.29 34.1784C54.8666 32.5223 54.5304 31.1277 54.5304 31.0904C54.5304 31.0406 54.6425 30.9783 54.7795 30.941C55.153 30.8413 55.3149 30.281 55.2277 29.2973C55.0908 27.7533 54.3437 26.6078 53.086 25.9852C52.4884 25.6864 52.4012 25.6864 48.591 25.649L44.6937 25.6117V24.4039C44.6937 22.9968 44.4944 22.4863 43.8096 22.1128C43.4236 21.9011 42.9754 21.8886 37.7581 21.8886C34.6577 21.8886 32.1176 21.8637 32.1176 21.8264C32.1176 21.8015 32.5285 21.2412 33.039 20.5937C35.8032 17.0574 37.0608 14.4052 37.1978 11.8278C37.3348 9.0635 36.4507 6.39885 34.6701 4.19492C32.2047 1.14428 28.1081 -0.449528 24.2108 0.110794ZM27.1992 1.59254C31.0592 2.15286 34.1596 4.8175 35.355 8.62769C35.7783 9.97246 35.8406 11.9647 35.4919 13.2099C34.7947 15.7625 33.151 18.3026 29.4405 22.5735C28.4194 23.7315 27.1992 25.151 26.726 25.7113L25.8669 26.7199L23.6131 24.1548C19.5663 19.5104 18.1718 17.6426 17.0387 15.3516C16.192 13.6332 15.8807 12.3134 15.9678 10.869C16.0052 10.2588 16.1422 9.38724 16.2542 8.93898C17.4994 4.09531 22.2683 0.895245 27.1992 1.59254ZM22.4676 25.0887C23.2894 26.0226 24.2606 27.1557 24.6341 27.6039C25.4061 28.5502 25.4684 28.6125 25.8918 28.6125C26.2031 28.6125 26.3276 28.488 30.0755 24.105L30.6856 23.3953H36.9488L43.1995 23.3828V36.9551V50.5273H33.9355H24.6715L24.5221 49.9421C24.1361 48.3981 22.9407 46.9662 21.459 46.2689C20.3134 45.7335 18.7321 45.6463 17.5492 46.0447C15.6939 46.6673 14.1997 48.3109 13.876 50.0666L13.7888 50.5273L11.1491 50.5024L8.52178 50.4651V47.4144V44.3638L9.95371 44.3015C11.3607 44.2393 11.3856 44.2393 11.5475 43.9031C11.7467 43.4797 11.5849 43.1062 11.1242 42.9318C10.9498 42.8571 10.2775 42.8073 9.62997 42.8073H8.45952V40.2548V37.7022H13.0417C16.9764 37.7022 17.6613 37.6773 17.8978 37.5029C18.2216 37.2788 18.2589 36.7559 17.9601 36.4321C17.7733 36.2204 17.462 36.208 13.104 36.208H8.45952V33.5931V30.9783H9.80429C11.2238 30.9783 11.4853 30.8911 11.6347 30.3931C11.6845 30.1814 11.6222 30.032 11.3981 29.7954C11.0993 29.4966 11.0121 29.4841 9.76694 29.4841H8.45952V26.5206C8.45952 24.8895 8.49687 23.5074 8.54668 23.47C8.58404 23.4202 11.4105 23.3828 14.7974 23.3828H20.9858L22.4676 25.0887ZM52.7499 27.5168C53.2604 27.853 53.5717 28.3635 53.6962 29.0732L53.7833 29.4841H49.2385H44.6937V28.2888V27.1059L48.4665 27.1432L52.2518 27.1806L52.7499 27.5168ZM53.7211 34.0539L54.4931 37.0796H49.5872H44.6937V34.029V30.9783L48.8276 31.0032L52.9491 31.0406L53.7211 34.0539ZM56.3733 38.7606C56.7344 38.8726 57.22 39.1341 57.469 39.3458C57.8799 39.7069 58.3904 40.5162 58.3904 40.8151C58.3904 40.8898 57.8052 40.9396 56.7468 40.9396C54.6051 40.9396 54.6549 40.8898 54.6549 42.7326C54.6549 43.8159 54.7172 44.2268 54.8915 44.6128C55.3771 45.6712 56.2612 46.1693 57.6433 46.1693H58.5149V48.3483V50.5273H57.3071H56.0869L55.8628 49.7429C55.4269 48.2487 54.3063 46.9537 52.8121 46.2564C52.0277 45.8829 51.8907 45.858 50.5957 45.858C49.2634 45.858 49.2011 45.8704 48.2797 46.3311C46.7731 47.0658 45.7023 48.3732 45.3038 49.9545C45.2042 50.3779 45.1046 50.5273 44.9303 50.5273C44.7061 50.5273 44.6937 50.3156 44.6937 44.5506V38.5738H50.2097C54.8168 38.5738 55.8379 38.6111 56.3733 38.7606ZM58.5149 43.5544V44.6751H57.6931C56.9585 44.6751 56.8464 44.6377 56.5102 44.314C56.1865 43.9902 56.1491 43.8657 56.1491 43.1933V42.4338H57.332H58.5149V43.5544ZM20.9734 47.6884C22.3181 48.3856 23.1524 49.718 23.1524 51.1748C23.1524 52.8309 22.3929 54.076 20.9485 54.7858C19.3049 55.5951 17.4745 55.234 16.2542 53.8768C14.374 51.7849 15.2207 48.4977 17.8978 47.4767C18.6449 47.1903 20.2014 47.3024 20.9734 47.6884ZM51.9281 47.5016C52.8619 47.8004 54.0324 48.9584 54.3437 49.8798C54.9289 51.6604 54.269 53.6402 52.7872 54.5741C51.6043 55.3212 50.2471 55.4208 49.0019 54.848C48.093 54.4247 47.5077 53.8643 47.0595 52.9927C46.7482 52.3577 46.6859 52.0838 46.6859 51.3367C46.6859 50.0293 46.9599 49.3693 47.8564 48.4728C48.4042 47.9249 48.7902 47.651 49.2385 47.514C50.0603 47.2401 51.1062 47.2401 51.9281 47.5016Z" fill="black"/>
<path d="M24.1232 5.14165C20.9978 6.00081 18.9184 9.16352 19.404 12.3138C19.9146 15.5636 22.6166 17.9045 25.854 17.9045C30.0003 17.9045 33.1257 13.9823 32.1794 9.96042C31.6564 7.74404 29.9132 5.86384 27.784 5.20391C26.8501 4.91752 25.0571 4.88017 24.1232 5.14165ZM27.9085 6.84752C30.4237 8.00552 31.5443 11.0064 30.3988 13.4718C29.4898 15.4267 27.7093 16.4975 25.58 16.3854C21.5333 16.1738 19.404 11.492 21.9068 8.32926C22.492 7.59462 23.3512 6.97204 24.2104 6.66075C25.1567 6.32455 26.9622 6.41172 27.9085 6.84752Z" fill="black"/>
<path d="M18.3714 48.8469C17.4002 49.1956 16.678 50.2166 16.678 51.2376C16.6904 52.8065 17.8858 53.8774 19.492 53.7404C20.3886 53.6657 21.036 53.2174 21.4594 52.3832C21.9948 51.2999 21.8329 50.2789 20.9862 49.4695C20.2142 48.71 19.3302 48.4983 18.3714 48.8469ZM19.9278 50.5155C20.3263 50.9264 20.3761 51.2376 20.1022 51.7606C19.629 52.6945 18.1722 52.296 18.1722 51.2252C18.1722 50.9015 18.2593 50.7271 18.5582 50.4781C19.0562 50.0547 19.4796 50.0672 19.9278 50.5155Z" fill="black"/>
<path d="M49.7487 48.8455C49.4872 48.9327 49.0763 49.1942 48.8521 49.4183C47.2085 50.9997 48.3292 53.7639 50.6078 53.7639C52.9363 53.7639 54.0196 50.925 52.2888 49.3561C51.5541 48.6961 50.6825 48.5093 49.7487 48.8455ZM51.3051 50.514C52.0024 51.2238 51.5915 52.2697 50.6078 52.2697C49.6241 52.2697 49.2132 51.2238 49.9105 50.514C50.3837 50.0409 50.8319 50.0409 51.3051 50.514Z" fill="black"/>
</svg>
