<svg width="60" height="61" viewBox="0 0 60 61" fill="none" xmlns="http://www.w3.org/2000/svg">
<path d="M47.1062 0.179081C40.1627 1.46309 36.2857 8.74329 39.0407 15.3005C39.5518 16.5346 40.225 17.4945 41.3719 18.6289C43.541 20.8105 45.9594 21.8202 48.9761 21.8452C53.1647 21.8576 56.7674 19.7135 58.6872 16.0609C60.582 12.4457 60.42 8.35684 58.2384 5.01593C55.82 1.3135 51.3821 -0.61875 47.1062 0.179081ZM50.8211 1.66255C56.8796 2.82189 60.2579 9.50372 57.5652 15.0137C55.7826 18.6538 51.9431 20.798 48.0287 20.3118C46.7572 20.1622 45.2613 19.6636 44.2266 19.0528C43.2792 18.5042 41.4841 16.7091 40.948 15.7866C39.6266 13.5303 39.2776 10.7129 40.0131 8.19478C40.5242 6.48693 41.858 4.56715 43.2916 3.4826C45.4981 1.81214 48.1783 1.1639 50.8211 1.66255Z" fill="black"/>
<path d="M50.4101 10.026L47.493 12.943L46.1592 11.6466C45.4237 10.9235 44.7131 10.3376 44.5885 10.3376C44.1895 10.3376 43.8031 10.6991 43.8031 11.0731C43.8031 11.3349 44.1521 11.7463 45.5359 13.13C47.0318 14.6135 47.3185 14.8379 47.5678 14.7631C48.0291 14.6259 54.3992 8.20591 54.3992 7.86933C54.3992 7.50781 53.9754 7.09643 53.6139 7.09643C53.4144 7.09643 52.5044 7.93166 50.4101 10.026Z" fill="black"/>
<path d="M20.4297 9.52746C18.1983 9.93884 16.3533 10.9611 14.795 12.6315C14.1717 13.2922 13.0124 14.9876 13.0124 15.2369C13.0124 15.2743 12.9002 15.5611 12.7755 15.8602L12.5262 16.4337L12.065 16.2841C11.6411 16.1594 11.5913 16.1719 11.317 16.4835C11.1549 16.683 11.0178 16.9199 11.0178 17.0196C11.0178 17.3312 11.4666 17.6554 12.2894 17.9296L13.0997 18.2039L12.8005 18.9518C11.0303 23.3399 13.0249 28.5383 17.3132 30.67C18.8839 31.4429 20.118 31.7046 21.9256 31.6299C24.4437 31.5177 26.3261 30.6949 28.1088 28.9247C29.2307 27.8028 29.9537 26.6309 30.415 25.1724C30.602 24.5865 30.7765 24.0879 30.789 24.0629C30.8139 24.0505 31.6117 24.2873 32.5841 24.6114C34.4789 25.2472 34.8653 25.2597 35.1022 24.7361C35.3889 24.1003 35.1271 23.8759 33.3944 23.3025C31.9358 22.8163 31.8236 22.754 31.8984 22.5047C32.2225 21.3827 32.3597 20.1486 32.2973 18.9394C32.1976 17.3686 31.9732 16.4586 31.3375 15.1372C29.3429 10.9985 24.8801 8.69223 20.4297 9.52746ZM24.7928 11.2603C25.8524 11.5968 26.9245 12.1827 27.822 12.9182C29.5797 14.3518 30.8388 17.0695 30.8388 19.4131C30.8388 20.2732 30.6643 21.47 30.4648 21.9936L30.3526 22.2803L27.9467 21.5074C20.8161 19.2012 14.0097 16.8825 14.0097 16.7827C14.0097 16.7079 14.2341 16.1968 14.5083 15.6359C15.356 13.8657 17.1262 12.2326 18.9961 11.4722C20.7787 10.7491 22.9478 10.6743 24.7928 11.2603ZM21.9879 21.1085L29.2806 23.5269L29.2432 23.8884C29.1684 24.4743 28.5451 25.9578 28.0464 26.7057C27.1613 28.0396 25.5782 29.2488 23.9825 29.7973C22.8606 30.1713 20.8535 30.271 19.744 29.9843C14.8948 28.7502 12.4016 23.7513 14.3213 19.1388C14.421 18.8895 14.5582 18.69 14.608 18.69C14.6579 18.69 17.9739 19.7871 21.9879 21.1085Z" fill="black"/>
<path d="M11.4781 31.6681C6.67873 32.2167 3.32536 35.9315 2.10369 42.0524C1.94163 42.8876 1.38066 46.8518 0.84462 50.8909C-0.0778664 57.9716 -0.102798 58.2209 0.109124 58.4578C0.333513 58.7071 0.508037 58.7071 10.0321 58.7071H19.7182L20.354 59.131C21.7003 60.041 21.3886 60.016 30.2146 60.016H38.1305L38.8286 59.6919C41.0601 58.6448 42.0075 56.0892 40.9603 54.0074L40.711 53.5337L45.9343 46.4903C48.8015 42.6134 51.17 39.3597 51.1949 39.2351C51.2323 39.1229 51.1825 38.8985 51.1077 38.7364C50.983 38.4746 50.1478 38.2253 42.9923 36.3055C38.6042 35.1213 34.9268 34.1614 34.8146 34.1489C34.5154 34.1489 34.2037 34.5229 30.0276 40.195C27.8461 43.137 25.9761 45.6551 25.864 45.7798C25.6645 45.9792 25.5897 45.8172 24.4802 43.0996C23.1339 39.7586 22.4358 38.35 21.3512 36.7543C18.7957 33.0269 15.2928 31.2194 11.4781 31.6681ZM13.4976 33.1516C15.5047 33.4134 17.1003 34.2611 18.7084 35.9315C20.6282 37.9386 21.2391 39.0605 23.9193 45.68C25.0537 48.4849 26.0883 50.8909 26.2005 51.0031C26.3626 51.1527 27.8461 51.4518 31.9598 52.1499C36.9961 53.0101 37.582 53.1348 38.3175 53.4963C39.3771 54.0448 39.8758 54.7928 39.8633 55.8274C39.8508 57.0366 39.0655 58.1087 37.956 58.4453C37.6194 58.545 35.2883 58.5824 30.1897 58.5824C22.1366 58.5824 22.1241 58.5824 21.0895 57.7971C20.7903 57.5727 20.4163 57.1613 20.2293 56.8995C20.0548 56.6253 18.7708 53.9326 17.387 50.9158C16.0033 47.899 14.7442 45.331 14.6071 45.2063C14.2705 44.9196 14.0586 44.9321 13.6846 45.3061C13.4478 45.5429 13.3979 45.6925 13.4602 45.9044C13.5101 46.054 14.6695 48.5846 16.0283 51.5391C17.3995 54.4811 18.5464 56.9743 18.5838 57.0491C18.6337 57.1738 16.8884 57.2112 10.0944 57.2112C5.39472 57.2112 1.54272 57.1738 1.54272 57.1364C1.54272 56.8372 3.32536 43.5982 3.47495 42.7879C4.5221 37.1034 7.45162 33.6378 11.6153 33.1516C12.0765 33.1017 12.4505 33.0519 12.4505 33.0394C12.4505 33.0394 12.9242 33.0893 13.4976 33.1516ZM41.9576 37.5771C45.685 38.5744 48.8264 39.4345 48.951 39.4844C49.1505 39.5592 48.5147 40.4941 44.4259 46.0166L39.6514 52.4491L38.891 52.1001C38.4671 51.9006 37.8812 51.6638 37.582 51.5765L37.0335 51.4144L36.1734 48.8589C35.6997 47.4627 35.2259 46.2161 35.1138 46.0914C34.7896 45.7299 34.0791 45.8546 33.9045 46.3158C33.8547 46.4405 34.1539 47.525 34.5902 48.8215C35.0016 50.0806 35.3257 51.1402 35.3132 51.1651C35.2633 51.2025 27.5718 49.906 27.31 49.8188C27.2477 49.8063 27.0108 49.3077 26.774 48.7342L26.3501 47.6871L26.6244 47.2882C27.5095 46.0665 35.1387 35.782 35.1636 35.7695C35.1885 35.7695 38.2427 36.5798 41.9576 37.5771Z" fill="black"/>
</svg>
