<svg width="47" height="60" viewBox="0 0 47 60" fill="none" xmlns="http://www.w3.org/2000/svg">
<path d="M21.2058 0.0706635C13.5557 1.04249 7.32608 6.94821 5.90572 14.5858C5.63161 16.0684 5.59424 19.0462 5.83096 20.1925C6.44147 23.0083 7.83691 26.1979 9.79303 29.2006C10.1668 29.7612 10.4658 30.2596 10.4658 30.2845C10.4658 30.3219 9.68089 30.3468 8.73398 30.3468C7.26378 30.3468 6.96476 30.3842 6.75295 30.5586C6.54114 30.7455 5.90572 33.362 3.25188 44.9491C1.45774 52.7362 0 59.2151 0 59.3521C0 59.5016 0.124593 59.701 0.274105 59.8007C0.523292 59.9751 2.92794 60 23.4235 60C43.9191 60 46.3238 59.9751 46.5729 59.8007C46.7225 59.701 46.847 59.5016 46.847 59.3521C46.847 59.2151 45.3893 52.7238 43.5952 44.9367C40.9413 33.3869 40.3059 30.7455 40.0941 30.5586C39.8823 30.3842 39.5833 30.3468 38.1131 30.3468C37.1662 30.3468 36.3812 30.3219 36.3812 30.2721C36.3812 30.2347 36.6055 29.8858 36.8671 29.4871C38.761 26.7087 40.3433 23.1578 41.0036 20.1925C41.2777 18.9715 41.2154 15.8566 40.879 14.2867C39.3465 7.09772 33.8395 1.62808 26.7626 0.257553C25.5167 0.0208244 22.4642 -0.0788498 21.2058 0.0706635ZM27.0492 1.8648C32.9424 3.22287 37.677 7.8079 39.1846 13.589C40.443 18.4357 39.5085 22.5224 35.8081 28.3658C33.9392 31.3186 31.5595 34.3836 26.8374 39.9405C25.4046 41.6225 24.0465 43.2173 23.8347 43.4914L23.4235 43.9898L23.0248 43.4914C22.8006 43.2173 21.4425 41.6225 20.0097 39.9405C15.2876 34.3836 12.9079 31.3186 11.039 28.3658C7.93659 23.4693 6.79033 19.7439 7.21395 16.0061C8.07364 8.49316 13.8049 2.63728 21.3553 1.56578C22.7133 1.36643 25.579 1.5284 27.0492 1.8648ZM12.4718 33.0505C13.8174 34.8695 15.9853 37.5109 18.9008 40.9497C20.3336 42.6317 21.8287 44.4134 22.2274 44.8993C22.9874 45.8462 23.3861 46.0705 23.7848 45.7839C23.9219 45.6842 24.7193 44.7622 25.579 43.7406C26.4387 42.7065 27.3607 41.6225 27.6348 41.311L28.1456 40.7503L29.703 42.3078L31.2604 43.8652L26.5757 46.357C24.0091 47.7276 21.6917 48.961 21.43 49.0856L20.9566 49.3224L20.209 48.6496C19.7979 48.2758 18.1159 46.6685 16.4712 45.0737L13.481 42.1832H9.48154C6.76541 42.1832 5.4821 42.1458 5.4821 42.0461C5.4821 41.8966 7.69986 32.2406 7.78708 31.9914C7.82445 31.8793 8.32283 31.8419 9.69335 31.8419H11.5623L12.4718 33.0505ZM39.7702 34.9568C40.1564 36.6388 40.5053 38.2086 40.5551 38.4454L40.6298 38.8939L39.197 39.629L37.7642 40.3766L35.21 37.8349L32.6683 35.2932L33.989 33.5613L35.3097 31.8295L37.1786 31.8669L39.06 31.9042L39.7702 34.9568ZM34.5746 39.3175C36.2317 40.9746 37.4029 42.0586 37.5524 42.0586C37.677 42.0586 38.4868 41.6973 39.3465 41.2487C40.2062 40.8002 40.9413 40.4638 40.9787 40.5012C41.0908 40.6258 42.2122 45.5472 42.125 45.597C42.0876 45.6219 38.3249 47.6154 33.7648 50.0325C29.2047 52.4497 25.3796 54.5304 25.2675 54.6674C25.1429 54.8045 25.0432 55.0163 25.0432 55.1284C25.0432 55.253 25.7534 56.0504 26.638 56.9225L28.2204 58.5049H24.6695H21.1186L16.8076 54.3684C14.4404 52.0883 12.1603 49.8955 11.7367 49.4968L10.9767 48.7866H7.43822H3.89977L4.48536 46.2574L5.07094 43.7406L8.98317 43.7157L12.8954 43.6907L16.6332 47.2915C18.689 49.285 20.4956 50.9421 20.6451 50.9795C20.8444 51.0293 22.5015 50.207 26.9371 47.8522C30.2512 46.0954 33.0297 44.5629 33.1169 44.4508C33.4408 44.0147 33.2664 43.753 31.1981 41.6723L29.1174 39.5792L29.4788 39.1431C29.6781 38.9064 30.2388 38.2336 30.7122 37.648C31.1981 37.0624 31.6467 36.5765 31.709 36.5765C31.7837 36.5765 33.067 37.8099 34.5746 39.3175ZM43.8319 52.6739C44.5296 55.714 45.1027 58.2682 45.1027 58.3429C45.1027 58.4675 43.5453 58.5049 37.7517 58.5049H30.3883L28.7686 56.9225C27.8341 56.013 27.1987 55.3028 27.261 55.2405C27.4354 55.0661 42.2745 47.1794 42.4365 47.1669C42.5112 47.1669 43.1093 49.5342 43.8319 52.6739ZM14.6522 54.3559L18.8883 58.4426L10.3662 58.48C5.66899 58.4924 1.8066 58.48 1.76922 58.4426C1.70693 58.3803 3.45123 50.5683 3.57583 50.3689C3.60074 50.3191 5.15816 50.2817 7.02706 50.2817H10.416L14.6522 54.3559Z" fill="black"/>
<path d="M22.0529 3.87117C21.9532 3.89609 21.4424 3.9833 20.9316 4.05806C16.8325 4.73086 12.9451 7.62143 11.0015 11.4714C7.05189 19.246 11.1884 28.7151 19.5984 31.1446C26.937 33.2752 34.6617 28.9767 36.8047 21.5883C39.0474 13.8511 34.2007 5.82728 26.2392 4.1079C25.4294 3.93347 22.489 3.75904 22.0529 3.87117ZM26.4137 5.67777C29.0675 6.32566 31.6466 8.03258 33.2663 10.188C39.1346 17.9751 34.425 28.9892 24.7441 30.1105C16.9944 31.02 10.1916 24.2297 11.0513 16.48C11.6743 10.9107 15.7485 6.53746 21.3054 5.49088C22.5887 5.2417 25.0307 5.32891 26.4137 5.67777Z" fill="black"/>
<path d="M22.9248 7.04727C22.7005 7.27153 22.6756 7.47088 22.6756 9.06568L22.6632 10.8474L20.8441 12.1556C19.8349 12.8782 18.7509 13.6756 18.4145 13.9373L17.8165 14.3983V15.395V16.3918H16.3463C14.1285 16.3918 14.3279 15.9806 14.3279 20.7401C14.3279 24.4156 14.3403 24.7146 14.5521 24.9015C14.7639 25.1008 15.5613 25.1133 23.4481 25.1133C31.6712 25.1133 32.1198 25.1008 32.3067 24.889C32.4936 24.6897 32.5185 24.2038 32.5185 20.7151C32.5185 15.9806 32.7054 16.3918 30.5001 16.3918H29.0299V15.395V14.3983L28.4318 13.9373C28.1079 13.6756 27.0115 12.8782 26.0147 12.1556C25.0055 11.4329 24.1832 10.7726 24.1707 10.6854C24.1707 10.5733 24.557 10.5359 25.7282 10.5359C27.7964 10.5359 27.7839 10.5483 27.7839 8.66698C27.7839 6.73578 27.8712 6.79808 25.2298 6.79808C23.336 6.79808 23.1491 6.823 22.9248 7.04727ZM26.2888 8.66698V9.04076H25.2298H24.1707V8.66698V8.2932H25.2298H26.2888V8.66698ZM25.5413 13.6507L27.5223 15.0835L27.5348 19.3446V23.6182H26.6003H25.6659V22.0109C25.6659 19.9302 25.7406 20.005 23.4232 20.005C21.1057 20.005 21.1805 19.9302 21.1805 22.0109V23.6182H20.246H19.3116V19.3446L19.3241 15.0835L21.3425 13.6258C22.4513 12.8284 23.3983 12.1805 23.4481 12.193C23.4979 12.2054 24.4448 12.8658 25.5413 13.6507ZM17.8165 20.7525V23.6182H16.8197H15.823V20.7525V17.8869H16.8197H17.8165V20.7525ZM31.0234 20.7525V23.6182H30.0266H29.0299V20.7525V17.8869H30.0266H31.0234V20.7525ZM24.1707 22.5591V23.6182H23.4232H22.6756V22.5591V21.5001H23.4232H24.1707V22.5591Z" fill="black"/>
<path d="M22.7883 13.8891C21.8788 14.1881 21.2558 15.0602 21.2682 16.0196C21.2807 17.2655 22.1778 18.1377 23.4237 18.1377C25.5667 18.1377 26.4015 15.3966 24.6198 14.1756C24.1713 13.8766 23.2867 13.7271 22.7883 13.8891ZM23.7477 15.3717C24.0467 15.5711 24.1588 15.9698 24.0093 16.2813C23.8847 16.5055 23.7477 16.5803 23.4237 16.5803C23.0998 16.5803 22.9627 16.5055 22.8381 16.2813C22.6263 15.8327 22.9503 15.2721 23.4237 15.2721C23.5234 15.2721 23.6729 15.3219 23.7477 15.3717Z" fill="black"/>
</svg>
