<svg width="18" height="18" viewBox="0 0 18 18" fill="none" xmlns="http://www.w3.org/2000/svg">
<path d="M9.00002 17.3333C7.86669 17.3333 6.78335 17.1166 5.75002 16.6833C4.76113 16.261 3.88058 15.6638 3.10835 14.8916C2.33613 14.1194 1.73891 13.2388 1.31669 12.2499C0.883354 11.2166 0.666687 10.1333 0.666687 8.99992C0.666687 7.86658 0.883354 6.78325 1.31669 5.74992C1.73891 4.76103 2.33613 3.88047 3.10835 3.10825C3.88058 2.33603 4.76113 1.73881 5.75002 1.31658C6.78335 0.883251 7.86669 0.666584 9.00002 0.666584C10.1334 0.666584 11.2167 0.883251 12.25 1.31658C13.2389 1.73881 14.1195 2.33603 14.8917 3.10825C15.6639 3.88047 16.2611 4.76103 16.6834 5.74992C17.1167 6.78325 17.3334 7.86658 17.3334 8.99992C17.3334 10.1333 17.1167 11.2166 16.6834 12.2499C16.2611 13.2388 15.6639 14.1194 14.8917 14.8916C14.1195 15.6638 13.2389 16.261 12.25 16.6833C11.2167 17.1166 10.1334 17.3333 9.00002 17.3333ZM9.00002 15.6666C10.2111 15.6666 11.3334 15.361 12.3667 14.7499C13.3667 14.161 14.1611 13.3666 14.75 12.3666C15.3611 11.3333 15.6667 10.211 15.6667 8.99992C15.6667 7.78881 15.3611 6.66658 14.75 5.63325C14.1611 4.63325 13.3667 3.83881 12.3667 3.24992C11.3334 2.63881 10.2111 2.33325 9.00002 2.33325C7.78891 2.33325 6.66669 2.63881 5.63335 3.24992C4.63335 3.83881 3.83891 4.63325 3.25002 5.63325C2.63891 6.66658 2.33335 7.78881 2.33335 8.99992C2.33335 10.211 2.63891 11.3333 3.25002 12.3666C3.83891 13.3666 4.63335 14.161 5.63335 14.7499C6.66669 15.361 7.78891 15.6666 9.00002 15.6666ZM9.83335 8.99992H13.1667V10.6666H8.16669V4.83325H9.83335V8.99992Z" fill="#2B2D34"/>
</svg>
