<svg width="18" height="18" viewBox="0 0 18 18" fill="none" xmlns="http://www.w3.org/2000/svg">
<path d="M17.3333 12.8166C17.3333 13.5944 17.1611 14.3333 16.8167 15.0333C16.4833 15.7 16.0167 16.2694 15.4167 16.7416C14.8167 17.2138 14.1444 17.5333 13.4 17.7L12.8667 16.1C13.3667 16.0222 13.8222 15.8388 14.2333 15.55C14.6444 15.2611 14.9722 14.9 15.2167 14.4666H13.1667C12.8667 14.4666 12.5889 14.3944 12.3333 14.25C12.0778 14.1055 11.875 13.9055 11.725 13.65C11.575 13.3944 11.5 13.1111 11.5 12.8V9.46662C11.5 9.16662 11.575 8.88884 11.725 8.63328C11.875 8.37773 12.0778 8.17495 12.3333 8.02495C12.5889 7.87495 12.8667 7.79995 13.1667 7.79995H15.6167C15.4833 6.72217 15.1055 5.73884 14.4833 4.84995C13.8611 3.96106 13.0778 3.26106 12.1333 2.74995C11.1555 2.22773 10.1111 1.96662 8.99999 1.96662C7.88888 1.96662 6.84443 2.22773 5.86666 2.74995C4.92221 3.26106 4.13888 3.96106 3.51666 4.84995C2.89443 5.73884 2.51666 6.72217 2.38332 7.79995H4.83332C5.13332 7.79995 5.4111 7.87495 5.66666 8.02495C5.92221 8.17495 6.12499 8.37773 6.27499 8.63328C6.42499 8.88884 6.49999 9.16662 6.49999 9.46662V12.8C6.49999 13.1111 6.42499 13.3944 6.27499 13.65C6.12499 13.9055 5.92221 14.1055 5.66666 14.25C5.4111 14.3944 5.13332 14.4666 4.83332 14.4666H2.33332C2.03332 14.4666 1.75555 14.3944 1.49999 14.25C1.24443 14.1055 1.04166 13.9055 0.891657 13.65C0.741656 13.3944 0.666656 13.1111 0.666656 12.8V8.63328C0.666656 7.51106 0.883323 6.43328 1.31666 5.39995C1.73888 4.39995 2.3361 3.51662 3.10832 2.74995C3.88055 1.98328 4.7611 1.38884 5.74999 0.966618C6.78332 0.522173 7.86666 0.29995 8.99999 0.29995C10.1333 0.29995 11.2167 0.522173 12.25 0.966618C13.2389 1.38884 14.1194 1.98328 14.8917 2.74995C15.6639 3.51662 16.2611 4.39995 16.6833 5.39995C17.1167 6.43328 17.3333 7.51106 17.3333 8.63328V12.8166ZM15.6667 12.8V9.46662H13.1667V12.8H15.6667ZM2.33332 9.46662V12.8H4.83332V9.46662H2.33332Z" fill="#2B2D34"/>
</svg>
