<svg width="16" height="20" viewBox="0 0 16 20" fill="none" xmlns="http://www.w3.org/2000/svg">
<path d="M8 0.833414L14.85 2.35008C15.0389 2.39453 15.1944 2.49453 15.3167 2.65008C15.4389 2.80564 15.5 2.97786 15.5 3.16675V11.4834C15.5 12.3279 15.3028 13.1167 14.9083 13.8501C14.5139 14.5834 13.9667 15.1834 13.2667 15.6501L8 19.1667L2.73333 15.6501C2.03333 15.1834 1.48611 14.5834 1.09167 13.8501C0.697222 13.1167 0.5 12.3279 0.5 11.4834V3.16675C0.5 2.97786 0.561111 2.80564 0.683333 2.65008C0.805556 2.49453 0.961111 2.39453 1.15 2.35008L8 0.833414ZM8 2.53341L2.16667 3.83341V11.4834C2.16667 12.0501 2.29722 12.5779 2.55833 13.0667C2.81944 13.5556 3.18333 13.9556 3.65 14.2667L8 17.1667L12.35 14.2667C12.8167 13.9556 13.1806 13.5556 13.4417 13.0667C13.7028 12.5779 13.8333 12.0501 13.8333 11.4834V3.83341L8 2.53341ZM11.7167 6.85008L12.8833 8.03341L7.58333 13.3334L4.05 9.80008L5.23333 8.61675L7.58333 10.9834L11.7167 6.85008Z" fill="#2B2D34"/>
</svg>
