<svg width="16" height="18" viewBox="0 0 16 18" fill="none" xmlns="http://www.w3.org/2000/svg">
<path d="M0.5 5.16675L7.53333 0.466747C7.67778 0.377859 7.83333 0.333414 8 0.333414C8.16667 0.333414 8.32222 0.377859 8.46667 0.466747L15.5 5.16675V16.8334C15.5 17.0667 15.4194 17.264 15.2583 17.4251C15.0972 17.5862 14.9 17.6667 14.6667 17.6667H1.33333C1.1 17.6667 0.902778 17.5862 0.741667 17.4251C0.580556 17.264 0.5 17.0667 0.5 16.8334V5.16675ZM2.16667 6.05008V16.0001H13.8333V6.05008L8 2.16675L2.16667 6.05008ZM8 8.50008C7.7 8.50008 7.42222 8.42508 7.16667 8.27508C6.91111 8.12508 6.70833 7.9223 6.55833 7.66675C6.40833 7.41119 6.33333 7.13341 6.33333 6.83341C6.33333 6.53341 6.40833 6.25564 6.55833 6.00008C6.70833 5.74452 6.91111 5.54175 7.16667 5.39175C7.42222 5.24175 7.7 5.16675 8 5.16675C8.3 5.16675 8.57778 5.24175 8.83333 5.39175C9.08889 5.54175 9.29167 5.74452 9.44167 6.00008C9.59167 6.25564 9.66667 6.53341 9.66667 6.83341C9.66667 7.13341 9.59167 7.41119 9.44167 7.66675C9.29167 7.9223 9.08889 8.12508 8.83333 8.27508C8.57778 8.42508 8.3 8.50008 8 8.50008Z" fill="#2B2D34"/>
</svg>
