<svg width="17" height="60" viewBox="0 0 17 60" fill="none" xmlns="http://www.w3.org/2000/svg">
<path d="M6.29606 0.211987C4.06776 0.741482 1.72914 2.70504 0.714271 4.88922L0.0744606 6.25709L0.0082734 27.7679C-0.013789 39.5934 0.0082734 49.4994 0.0744606 49.7862C0.515709 51.5953 3.1632 51.5953 3.60445 49.7862C3.67063 49.4994 3.6927 41.5128 3.67063 32.0039C3.62651 22.5171 3.62651 14.7511 3.64857 14.7511C3.67063 14.7511 4.15601 14.9938 4.70757 15.2806C6.98 16.494 9.53924 16.5602 11.7675 15.4351L12.981 14.8173V30.967C12.981 46.9843 12.981 47.1387 13.4443 47.7124C14.0841 48.5287 15.4078 48.5287 16.0476 47.6903L16.511 47.1167L16.4668 26.4663L16.4006 5.81584L15.805 4.66859C15.0107 3.16835 14.0841 2.15348 12.8045 1.33717C10.9071 0.123737 8.45818 -0.295452 6.29606 0.211987ZM10.6203 4.20528C12.5618 5.28634 13.4443 7.73527 12.6721 9.78707C12.1867 11.0005 10.885 12.1698 9.53924 12.5449C7.48743 13.1185 5.01644 11.9713 4.13394 10.0298C2.30276 6.0144 6.71525 2.06523 10.6203 4.20528Z" fill="black"/>
<path d="M7.17858 40.3875C6.29609 41.0714 6.27402 42.5055 7.13446 43.2115C7.66396 43.6527 8.89945 43.5865 9.45101 43.1012C10.0467 42.5496 10.0467 41.1597 9.45101 40.564C8.94358 40.0566 7.75221 39.9683 7.17858 40.3875Z" fill="black"/>
<path d="M7.28874 46.8962C6.4945 47.2051 6.36212 48.1538 6.36212 53.4488V58.6114L6.93574 59.2953C7.6638 60.1778 8.76692 60.244 9.56117 59.4277L10.1127 58.8982V53.3605V47.8229L9.56117 47.2934C9.05374 46.7639 8.03886 46.5874 7.28874 46.8962Z" fill="black"/>
</svg>
