<svg width="37" height="60" viewBox="0 0 37 60" fill="none" xmlns="http://www.w3.org/2000/svg">
<path d="M4.06665 0.309078C2.68773 0.799881 1.30881 2.08532 0.60766 3.48761L0 4.70293V29.804C0 48.7817 0.0701146 55.1621 0.280459 55.8866C0.654403 57.172 2.82796 59.3456 4.11339 59.7195C4.81454 59.9299 8.64747 60 18.37 60H31.6684L32.837 59.4391C34.2861 58.7613 35.3378 57.6628 36.0389 56.1437L36.5765 54.9751L36.6466 30.5519C36.6933 13.6309 36.6232 5.75465 36.4362 4.91327C36.0857 3.18378 34.9638 1.66463 33.4213 0.776508L32.1359 0.0519905L18.5804 0.00524902C7.15169 -0.0181236 4.88465 0.0286179 4.06665 0.309078ZM31.9489 4.46921L32.6033 5.03013L32.6734 12.883L32.7435 20.7358H18.3467H3.97316V12.9998V5.26384L4.65094 4.58607L5.32871 3.90829H18.3233H31.2945L31.9489 4.46921ZM32.7202 39.5499V54.6245L32.0424 55.3724L31.3646 56.1437L18.6739 56.2138C9.41873 56.2606 5.79614 56.1904 5.30534 56.0035C3.92642 55.4192 3.97316 56.1437 3.97316 39.62V24.4753H18.3467H32.7202V39.5499Z" fill="black"/>
<path d="M8.69425 7.8119C7.96973 8.09236 7.71265 9.23756 7.71265 12.2992C7.71265 15.4077 7.89962 16.3893 8.60077 16.9034C9.20843 17.3709 10.4471 17.3007 10.9613 16.7866C11.6157 16.1322 11.7326 15.1739 11.6391 11.6448C11.569 8.70002 11.5456 8.51305 11.008 8.09236C10.4939 7.67167 9.37203 7.53144 8.69425 7.8119Z" fill="black"/>
<path d="M8.53073 28.5424C7.75947 29.3137 7.66598 30.0382 7.75947 35.1565C7.82958 39.2933 7.87632 39.6906 8.29701 40.1347C8.5541 40.3918 9.09165 40.6489 9.51233 40.7423C10.1434 40.8592 10.3771 40.7657 10.9847 40.1814L11.6859 39.4803V34.5489C11.6859 29.337 11.569 28.6826 10.5874 28.2386C9.72268 27.8413 9.13839 27.9347 8.53073 28.5424Z" fill="black"/>
</svg>
