<svg width="51" height="60" viewBox="0 0 51 60" fill="none" xmlns="http://www.w3.org/2000/svg">
<path d="M7.69063 0.422905C7.13471 0.79295 7.10823 1.0044 7.10823 3.99119V7.13656H4.72569C2.52845 7.13656 2.26373 7.18943 1.68133 7.79736C1.25776 8.19383 1.01951 8.7489 1.01951 9.2511C1.01951 9.7533 1.25776 10.3084 1.68133 10.7048L2.31667 11.3656H10.0202H17.6973V22.0705C17.6973 33.7269 17.6973 33.8326 16.2149 35.207C15.3413 36 14.15 36.3436 11.4762 36.6079C7.05529 37.0044 4.01093 38.6167 1.94605 41.6035C0.410636 43.8767 -0.0923456 45.7004 0.0135453 48.793C0.0929634 51.2511 0.172382 51.6211 1.09893 53.4449C2.74024 56.8018 5.70518 59.0485 9.33194 59.7093C10.3644 59.8943 16.109 60 25.6127 60C41.5228 60 42.2111 59.9471 44.9642 58.5463C46.7379 57.6476 48.9087 55.4273 49.7823 53.6035C52.006 49.0573 51.1324 43.7445 47.585 40.1233C45.3084 37.7974 43.3759 37.0044 39.405 36.7137C37.6842 36.6079 35.8841 36.3436 35.3811 36.1322C34.2428 35.6564 33.1574 34.3612 32.7868 33.0925C32.6279 32.511 32.522 28.0705 32.522 21.7269V11.3656H40.1991H47.9027L48.538 10.7048C49.4646 9.80617 49.4381 8.43172 48.5116 7.69163C47.9292 7.24229 47.4262 7.13656 45.7319 7.13656H43.6406V3.99119C43.6406 1.0044 43.6141 0.79295 43.0582 0.422905C42.5287 0.0528603 40.4109 0 25.3744 0C10.3379 0 8.22009 0.0528603 7.69063 0.422905ZM39.405 5.68282V7.13656H25.3744H11.3439V5.68282V4.22907H25.3744H39.405V5.68282ZM28.3394 23.0485L28.4188 34.7577L29.0806 36.0264C29.8483 37.5595 31.8602 39.489 33.3956 40.1762C34.1634 40.5463 35.1164 40.7048 36.5194 40.7048C40.4903 40.7048 42.9523 41.5771 44.726 43.5595C47.1879 46.3612 47.135 50.9868 44.5936 53.3656L43.9583 53.9471L44.0906 52.7841C44.3289 50.7225 43.5612 48.7665 41.8405 47.0485C39.405 44.6167 39.6697 44.6696 26.0362 44.6696C14.6 44.6696 14.3088 44.6696 13.6205 45.2247C13.1175 45.6211 12.9322 46.0176 12.9322 46.652C12.9322 49.1894 12.7469 49.163 26.0362 49.163C38.4784 49.163 38.4519 49.163 39.2991 50.8018C39.9344 51.9912 39.6432 53.5242 38.6372 54.5551L37.8166 55.3744L24.1302 55.4537C8.77602 55.533 8.93485 55.533 6.76409 53.63C5.09631 52.1762 4.35507 50.5374 4.38154 48.37C4.40802 45.3304 5.81107 43.0837 8.56423 41.7357C9.99376 41.0485 10.6556 40.8899 13.1175 40.7313C15.2618 40.5991 16.2943 40.3877 17.2208 39.9383C18.7827 39.1982 20.4505 37.3744 21.3506 35.4714L22.0653 33.9648L22.1447 22.652L22.2242 11.3656H25.2421H28.2599L28.3394 23.0485Z" fill="black"/>
</svg>
