<svg width="53" height="60" viewBox="0 0 53 60" fill="none" xmlns="http://www.w3.org/2000/svg">
<path d="M24.7235 0.565285C24.1586 1.1076 24.1586 1.1302 24.1586 5.60435V10.1011L22.9835 10.2593C18.9161 10.779 14.9391 12.7223 11.7529 15.7277L10.126 17.2417L9.51587 16.6768C8.16006 15.4565 3.66331 11.5925 3.0532 11.118C2.19452 10.4627 1.22286 10.4853 0.544962 11.1858C-0.0877473 11.8185 -0.178134 12.7675 0.318994 13.4906C0.499768 13.7392 2.30751 15.3887 4.34121 17.1513L8.02448 20.3374L7.16581 22.0774C4.54459 27.4554 4.61238 34.5282 7.32398 40.0192C8.38603 42.1885 9.51587 43.7477 11.2332 45.4876C14.3064 48.6286 18.0122 50.5041 22.6446 51.295L24.1586 51.5661V55.1364C24.1586 58.5937 24.1812 58.7519 24.7009 59.3394C25.4466 60.2207 26.712 60.2207 27.4577 59.3394C27.9774 58.7519 28 58.5937 28 55.1364V51.5661L29.4688 51.3176C38.0782 49.8036 44.699 43.4991 46.4163 35.1609C46.8683 32.856 46.8909 28.8338 46.4163 26.5289C46.213 25.5573 45.6933 23.9303 45.2413 22.9361C44.812 21.9418 44.4052 20.9701 44.36 20.7894C44.2923 20.5634 45.6029 19.2302 48.2015 16.8801C51.93 13.5584 52.1785 13.2873 52.1785 12.519C52.1785 11.5021 51.3424 10.6208 50.3934 10.6208C49.6251 10.6208 49.4217 10.779 45.1283 14.6431L42.0326 17.3999L40.8801 16.1796C38.1007 13.2421 33.9429 11.0728 29.6948 10.3723L28 10.0785V5.83032C28 0.542686 27.8192 0.000366211 25.9437 0.000366211C25.537 0.000366211 25.0624 0.226334 24.7235 0.565285ZM30.3727 14.2363C35.2988 15.5017 39.1628 18.6879 41.4451 23.388C42.8235 26.2126 43.2302 28.2689 43.0946 31.7036C43.0042 33.9181 42.8687 34.8219 42.3715 36.2681C40.4056 42.0755 35.5247 46.3689 29.5818 47.5891C27.0735 48.0862 23.3677 47.9281 21.108 47.2276C14.6001 45.1939 10.2164 40.1774 9.08653 33.5113C7.66294 24.9924 13.2217 16.4734 21.6729 14.2589C24.0456 13.6262 27.9774 13.6262 30.3727 14.2363Z" fill="black"/>
<path d="M22.5992 18.4394C19.4582 19.2755 15.9331 22.1679 14.5095 25.1054C11.9787 30.2349 12.8826 35.7937 16.9048 39.7707C19.6164 42.4597 22.328 43.6122 25.9209 43.6122C28.2935 43.6122 29.7849 43.2958 31.796 42.3468C34.824 40.9006 37.3548 37.9178 38.4169 34.5735C38.9592 32.8335 39.0496 29.8734 38.6202 28.0204C37.5808 23.4559 33.8523 19.6144 29.3556 18.4168C27.7738 17.9875 24.2035 18.0101 22.5992 18.4394ZM27.819 21.7159C32.7451 22.778 36.112 27.4781 35.2985 32.246C34.598 36.2682 31.5701 39.2962 27.5252 39.9967C24.8588 40.4712 21.9213 39.59 19.7972 37.737C14.2384 32.8335 16.498 23.7722 23.7742 21.8063C25.243 21.4222 26.2824 21.3996 27.819 21.7159Z" fill="black"/>
</svg>
