<svg width="48" height="60" viewBox="0 0 48 60" fill="none" xmlns="http://www.w3.org/2000/svg">
<path d="M3.71167 0.276024C2.34048 0.772491 1.27663 1.71814 0.614671 3.06569L0 4.29503V29.2838C0 53.516 0.0236412 54.2725 0.449183 54.8163C0.874725 55.36 1.06385 55.3837 4.20813 55.4546L7.5179 55.5255L7.61247 57.1568C7.68339 58.4807 7.8016 58.9062 8.27442 59.4027C9.0073 60.1828 10.213 60.2065 10.9932 59.4263C11.5842 58.8353 11.9625 57.1568 11.7733 56.0929L11.6551 55.5019H23.4048H35.1781L35.2727 57.1804C35.3436 58.6698 35.4382 58.9299 36.0056 59.4263C36.9039 60.1828 38.0387 60.1828 38.7716 59.4027C39.2444 58.9062 39.3626 58.4807 39.4335 57.1568L39.5281 55.5019H42.6015C44.28 55.5019 45.8639 55.3837 46.124 55.2655C47.3297 54.6035 47.2824 55.4546 47.2824 29.4256C47.2824 2.75835 47.3297 3.65672 45.8167 1.93091C45.4148 1.48173 44.6346 0.867054 44.1145 0.583363L43.1452 0.0632553L23.8776 0.0159721C8.2035 -0.031311 4.44455 0.0159721 3.71167 0.276024ZM42.8142 4.41324C43.2398 4.93334 43.2634 5.66622 43.2634 28.3381V51.7193H23.523H3.78259V32.2153V12.7113H12.2934H20.8279L21.3953 12.1203C22.1755 11.3637 22.1755 10.2763 21.3953 9.51974L20.8279 8.92871H12.2934H3.78259V6.9192C3.78259 5.07519 3.82988 4.83878 4.37362 4.29503L4.94101 3.72764L23.6648 3.77493L42.365 3.84585L42.8142 4.41324Z" fill="black"/>
<path d="M28.2276 8.78692C26.3836 9.59072 26.7382 12.2385 28.7477 12.5932C31.0645 13.0187 32.0575 9.68528 29.8825 8.78692C28.9605 8.40866 29.1259 8.40866 28.2276 8.78692Z" fill="black"/>
<path d="M37.4242 8.69227C36.3131 9.14145 36.0294 11.08 36.9514 11.9548C37.5661 12.5458 38.89 12.6404 39.5047 12.1675C40.5921 11.3401 40.6158 9.77976 39.5519 8.92868C38.9136 8.43222 38.2753 8.36129 37.4242 8.69227Z" fill="black"/>
<path d="M19.9768 17.8177C17.329 18.456 15.2013 19.709 13.0027 21.9313C10.0712 24.8391 8.84181 27.5342 8.6054 31.506C8.22714 37.5817 11.5133 43.0901 17.1399 45.8089C19.504 46.9437 21.1116 47.3219 23.523 47.2983C25.9817 47.2983 27.5656 46.92 29.9061 45.8089C37.424 42.1918 40.6156 33.4682 37.1403 26.0685C35.2254 21.9785 31.0409 18.5979 26.7618 17.6995C25.0597 17.3449 21.7026 17.4158 19.9768 17.8177ZM27.4238 22.1204C29.0078 22.7351 30.7099 24.0353 31.9866 25.5247L32.9322 26.6595L32.2702 27.156C29.0314 29.7092 28.7477 34.0356 31.6556 36.6597C32.152 37.1089 32.6958 37.5108 32.8849 37.5817C33.3577 37.7472 31.6319 39.9932 30.1662 41.0806C26.7146 43.7048 22.6719 44.0831 18.7948 42.1681C12.1989 38.882 10.4967 30.4894 15.3904 25.1465C16.8089 23.6098 18.4638 22.4987 20.2842 21.9076C22.1282 21.293 25.5798 21.4112 27.4238 22.1204ZM34.5162 32.5698L34.4925 34.1065L34.0433 33.5391C33.4996 32.9244 33.4287 31.6242 33.8542 30.9149C34.2797 30.2293 34.5162 30.7967 34.5162 32.5698Z" fill="black"/>
</svg>
