<svg width="21" height="24" viewBox="0 0 21 24" fill="none" xmlns="http://www.w3.org/2000/svg">
<path d="M6.89321 3H3.44984C2.94235 3 2.6886 3 2.49477 3.10899C2.32426 3.20487 2.18564 3.35785 2.09876 3.54601C2 3.75992 2 4.03995 2 4.6V8.4C2 8.96005 2 9.24008 2.09876 9.45399C2.18564 9.64215 2.32426 9.79513 2.49477 9.89101C2.6886 10 2.94235 10 3.44984 10H6.89321C7.4007 10 7.65444 10 7.84828 9.89101C8.01878 9.79513 8.1574 9.64215 8.24428 9.45399C8.34304 9.24008 8.34304 8.96005 8.34304 8.4V4.6C8.34304 4.03995 8.34304 3.75992 8.24428 3.54601C8.1574 3.35785 8.01878 3.20487 7.84828 3.10899C7.65444 3 7.4007 3 6.89321 3Z" stroke="#2B2D34" stroke-width="2" stroke-linecap="round" stroke-linejoin="round"/>
<path d="M16.8608 3H13.4175C12.91 3 12.6562 3 12.4624 3.10899C12.2919 3.20487 12.1533 3.35785 12.0664 3.54601C11.9676 3.75992 11.9676 4.03995 11.9676 4.6V8.4C11.9676 8.96005 11.9676 9.24008 12.0664 9.45399C12.1533 9.64215 12.2919 9.79513 12.4624 9.89101C12.6562 10 12.91 10 13.4175 10H16.8608C17.3683 10 17.6221 10 17.8159 9.89101C17.9864 9.79513 18.125 9.64215 18.2119 9.45399C18.3107 9.24008 18.3107 8.96005 18.3107 8.4V4.6C18.3107 4.03995 18.3107 3.75992 18.2119 3.54601C18.125 3.35785 17.9864 3.20487 17.8159 3.10899C17.6221 3 17.3683 3 16.8608 3Z" stroke="#2B2D34" stroke-width="2" stroke-linecap="round" stroke-linejoin="round"/>
<path d="M16.8608 14H13.4175C12.91 14 12.6562 14 12.4624 14.109C12.2919 14.2049 12.1533 14.3578 12.0664 14.546C11.9676 14.7599 11.9676 15.0399 11.9676 15.6V19.4C11.9676 19.9601 11.9676 20.2401 12.0664 20.454C12.1533 20.6422 12.2919 20.7951 12.4624 20.891C12.6562 21 12.91 21 13.4175 21H16.8608C17.3683 21 17.6221 21 17.8159 20.891C17.9864 20.7951 18.125 20.6422 18.2119 20.454C18.3107 20.2401 18.3107 19.9601 18.3107 19.4V15.6C18.3107 15.0399 18.3107 14.7599 18.2119 14.546C18.125 14.3578 17.9864 14.2049 17.8159 14.109C17.6221 14 17.3683 14 16.8608 14Z" stroke="#2B2D34" stroke-width="2" stroke-linecap="round" stroke-linejoin="round"/>
<path d="M6.89321 14H3.44984C2.94235 14 2.6886 14 2.49477 14.109C2.32426 14.2049 2.18564 14.3578 2.09876 14.546C2 14.7599 2 15.0399 2 15.6V19.4C2 19.9601 2 20.2401 2.09876 20.454C2.18564 20.6422 2.32426 20.7951 2.49477 20.891C2.6886 21 2.94235 21 3.44984 21H6.89321C7.4007 21 7.65444 21 7.84828 20.891C8.01878 20.7951 8.1574 20.6422 8.24428 20.454C8.34304 20.2401 8.34304 19.9601 8.34304 19.4V15.6C8.34304 15.0399 8.34304 14.7599 8.24428 14.546C8.1574 14.3578 8.01878 14.2049 7.84828 14.109C7.65444 14 7.4007 14 6.89321 14Z" stroke="#2B2D34" stroke-width="2" stroke-linecap="round" stroke-linejoin="round"/>
</svg>
